<?xml version="1.0" encoding="UTF-8" standalone="no"?> <svg id="Layer_1" data-name="Layer 1" xmlns="http://www.w3.org/2000/svg" viewBox="0 0 128 128"><defs><style>.cls-1{fill:#2d3e50;}</style></defs><title>n</title><path class="cls-1" d="M114.77093,43.31192A51.71906,51.71906,0,0,0,12.30737,54.90043c.09186,2.67906.4746,71.67057.4746,71.67057l33.86239-24.685a51.72646,51.72646,0,0,0,68.12657-58.57412ZM68.23317,84.04012a5.8998,5.8998,0,0,1-10.12277-4.095,5.859,5.859,0,0,1,5.821-5.88225,5.88722,5.88722,0,0,1,4.30176,9.97727ZM74.55941,50.882l-1.82172,1.6227c-1.72614,1.55387-3.55158,3.15353-3.75447,5.8326-.14538,1.971-.24868,4.02605-.24868,6.29934a1.16966,1.16966,0,0,1-.20289.89941c-.04207.04979-.19517.22965-.94534.20289-.47447-.023-.97583-.023-1.45043-.023H63.6368c-1.42753,0-2.901,0-4.32852.023-.6277,0-.79983-.17613-.79983-.8-.12634-4.40107-.09958-9.40695,1.52312-12.9777,1.19788-2.67893,3.42525-4.35142,5.603-5.95121a21.41612,21.41612,0,0,0,4.85278-4.45472c2.42253-3.32194,1.971-5.95121,1.14809-7.5815-1.30119-2.52211-4.447-4.24811-7.85321-4.24811-4.37059,0-7.79969,2.67507-9.17357,7.12993-.45157,1.44657-.57791,1.54615-1.12906,1.54615a10.36287,10.36287,0,0,1-1.20161-.11862c-2.42266-.32923-4.87581-.6277-7.32523-.92617-.87638-.10344-1.00272-.42481-.92617-1.07927.976-10.35242,11.02977-15.75248,20.45988-15.75248A21.3287,21.3287,0,0,1,78.662,25.42393a15.04025,15.04025,0,0,1,5.33124,11.179C83.96649,42.58478,79.037,46.9286,74.55941,50.882Z"/></svg>